<svg width="124" height="24" viewBox="0 0 124 24" fill="none" xmlns="http://www.w3.org/2000/svg">
  <path d="M22.3632 0V5.75988H24.7341V9.66711H22.3632V23.5368H17.0224V9.66711H14.7527V5.75988H17.0224V0H22.3642H22.3632ZM34.3052 5.23041C40.0138 5.23041 43.9198 9.30241 43.9198 15.9233V16.4859H30.3981C30.8663 18.3727 32.2341 19.3654 34.5382 19.3654C35.6062 19.3654 36.4745 19.068 37.276 18.3727H43.0849C41.3482 22.08 38.3774 23.9668 34.371 23.9668C31.6333 23.9668 29.4305 23.0405 27.5935 21.1206C25.8578 19.2991 24.9571 17.0486 24.9571 14.5328C24.9571 12.0502 25.9247 9.76557 27.6938 8.01139C29.4974 6.22304 31.8673 5.23041 34.3052 5.23041ZM30.232 12.7786H38.6114C37.9761 10.9571 36.4745 9.9645 34.371 9.9645C32.1673 9.9645 30.5988 11.0898 30.231 12.7776L30.232 12.7786ZM46.1246 23.5368V0H51.3661V23.5368H46.1246ZM54.7442 23.5368V0H59.9837V23.5368H54.7452H54.7442ZM76.1195 7.74615V5.76088H81.3944V23.5368H76.2877V21.5516C74.7171 23.0737 73.1162 23.6363 70.9783 23.6363C68.809 23.6363 66.9395 22.9411 65.369 21.5516C63.3 19.7301 62.231 17.3459 62.231 14.566C62.231 12.0161 63.2331 9.73242 65.1025 7.94508C66.7723 6.3225 68.809 5.49565 71.0786 5.49565C73.249 5.49565 74.9188 6.22304 76.1195 7.74615ZM72.1476 18.9022C74.4172 18.9022 76.3201 17.0486 76.3201 14.5991C76.3201 12.0502 74.4172 10.1293 71.947 10.1293C69.4432 10.1293 67.5059 12.1487 67.5059 14.5328C67.5059 17.0144 69.4432 18.9032 72.1466 18.9032L72.1476 18.9022ZM84.584 23.5368V5.76088H89.9258V23.5368H84.584ZM95.1572 5.49565C96.0985 5.49565 97.0013 5.86644 97.667 6.52646C98.3326 7.18648 98.7066 8.08166 98.7066 9.01507C98.7066 9.94848 98.3326 10.8437 97.667 11.5037C97.0013 12.1637 96.0985 12.5345 95.1572 12.5345C94.2158 12.5345 93.313 12.1637 92.6474 11.5037C91.9818 10.8437 91.6078 9.94848 91.6078 9.01507C91.6078 8.08166 91.9818 7.18648 92.6474 6.52646C93.313 5.86644 94.2158 5.49565 95.1572 5.49565ZM111.222 14.7076L104.97 5.75988H111.415L114.486 10.0991L115.759 8.29973L117.558 5.75988H124L122.226 8.29973L120.969 10.0981H114.486L115.01 10.8396L116.808 13.3784L124 23.5368H117.392L114.486 19.3774L113.354 20.997L111.58 23.5368H104.97L106.769 20.997L111.222 14.7076ZM8.51322 12.5134C12.1852 13.507 14.0212 14.8965 14.0212 17.8433C14.0212 21.4179 11.1841 24 6.84341 24C2.83707 24 0.366792 21.849 0 18.2401H4.975V18.4059C4.975 19.3985 5.77545 20.0938 6.91028 20.0938C8.04612 20.0938 8.71384 19.5311 8.71384 18.5385C8.71384 17.0817 7.27808 17.148 5.04086 16.4528C1.9363 15.4923 0.433666 13.8376 0.433666 11.1561C0.433666 7.67984 3.00425 5.23041 7.27808 5.23041C10.9835 5.23041 13.3535 7.31614 13.5551 10.6929H8.78072C8.5801 9.53349 8.14542 9.03717 7.21121 9.03717C6.17568 9.03717 5.57585 9.63295 5.57585 10.494C5.57585 11.7197 6.67724 12.0161 8.51322 12.5134Z" fill="#313147"/>
</svg>
